{
  "accessors": [
    {
      "bufferView": 2,
      "componentType": 5126,
      "count": 683,
      "max": [
        2.8138315677642822,
        0.77858531475067139,
        1.5269640684127808
      ],
      "min": [
        -2.8138315677642822,
        -1.0421767234802246,
        -1.2644712924957275
      ],
      "type": "VEC3"
    },
    {
      "bufferView": 2,
      "byteOffset": 8196,
      "componentType": 5126,
      "count": 683,
      "max": [
        0.99999845027923584,
        0.99967211484909058,
        0.9993857741355896
      ],
      "min": [
        -0.99999845027923584,
        -1,
        -0.99236100912094116
      ],
      "type": "VEC3"
    },
    {
      "bufferView": 1,
      "componentType": 5126,
      "count": 683,
      "max": [
        1,
        1
      ],
      "min": [
        0,
        0
      ],
      "type": "VEC2"
    },
    {
      "bufferView": 0,
      "componentType": 5125,
      "count": 1746,
      "max": [
        682
      ],
      "min": [
        0
      ],
      "type": "SCALAR"
    },
    {
      "bufferView": 2,
      "byteOffset": 16392,
      "componentType": 5126,
      "count": 122,
      "max": [
        0.83588999509811401,
        1,
        0.83595484495162964
      ],
      "min": [
        -0.83588999509811401,
        0.71282994747161865,
        -0.83582514524459839
      ],
      "type": "VEC3"
    },
    {
      "bufferView": 2,
      "byteOffset": 17856,
      "componentType": 5126,
      "count": 122,
      "max": [
        0.92387974262237549,
        1,
        0.92387962341308594
      ],
      "min": [
        -0.92387974262237549,
        0,
        -0.92387956380844116
      ],
      "type": "VEC3"
    },
    {
      "bufferView": 1,
      "byteOffset": 5464,
      "componentType": 5126,
      "count": 122,
      "max": [
        0.5,
        1
      ],
      "min": [
        0,
        0.055469397455453873
      ],
      "type": "VEC2"
    },
    {
      "bufferView": 0,
      "byteOffset": 6984,
      "componentType": 5125,
      "count": 210,
      "max": [
        121
      ],
      "min": [
        0
      ],
      "type": "SCALAR"
    },
    {
      "bufferView": 2,
      "byteOffset": 19320,
      "componentType": 5126,
      "count": 48,
      "max": [
        0.57130920886993408,
        0.33232617378234863,
        1.2988510131835938
      ],
      "min": [
        -0.57130920886993408,
        -0.18906880915164948,
        0.67165642976760864
      ],
      "type": "VEC3"
    },
    {
      "bufferView": 2,
      "byteOffset": 19896,
      "componentType": 5126,
      "count": 48,
      "max": [
        0.89682382345199585,
        0.93683487176895142,
        0.92283618450164795
      ],
      "min": [
        -0.89682382345199585,
        -0.95928347110748291,
        0.23412488400936127
      ],
      "type": "VEC3"
    },
    {
      "bufferView": 1,
      "byteOffset": 6440,
      "componentType": 5126,
      "count": 48,
      "max": [
        0.50005364418029785,
        0.80875641107559204
      ],
      "min": [
        0.3928571343421936,
        0.68909841775894165
      ],
      "type": "VEC2"
    },
    {
      "bufferView": 0,
      "byteOffset": 7824,
      "componentType": 5125,
      "count": 72,
      "max": [
        47
      ],
      "min": [
        0
      ],
      "type": "SCALAR"
    },
    {
      "bufferView": 2,
      "byteOffset": 20472,
      "componentType": 5126,
      "count": 200,
      "max": [
        3.3653934001922607,
        0.57177937030792236,
        1.6246408224105835
      ],
      "min": [
        -3.3653934001922607,
        -1.0421767234802246,
        -0.20921799540519714
      ],
      "type": "VEC3"
    },
    {
      "bufferView": 2,
      "byteOffset": 22872,
      "componentType": 5126,
      "count": 200,
      "max": [
        0.99982267618179321,
        0.99973511695861816,
        0.9995763897895813
      ],
      "min": [
        -0.99982267618179321,
        -0.99902021884918213,
        -0.98596704006195068
      ],
      "type": "VEC3"
    },
    {
      "bufferView": 1,
      "byteOffset": 6824,
      "componentType": 5126,
      "count": 200,
      "max": [
        0.5,
        0.86335724592208862
      ],
      "min": [
        0.16211581230163574,
        0.50961244106292725
      ],
      "type": "VEC2"
    },
    {
      "bufferView": 0,
      "byteOffset": 8112,
      "componentType": 5125,
      "count": 300,
      "max": [
        199
      ],
      "min": [
        0
      ],
      "type": "SCALAR"
    },
    {
      "bufferView": 2,
      "byteOffset": 25272,
      "componentType": 5126,
      "count": 96,
      "max": [
        1,
        1,
        1
      ],
      "min": [
        -1,
        -1.7766098976135254,
        -1
      ],
      "type": "VEC3"
    },
    {
      "bufferView": 2,
      "byteOffset": 26424,
      "componentType": 5126,
      "count": 96,
      "max": [
        0.91577780246734619,
        1,
        0.92387956380844116
      ],
      "min": [
        -0.92387962341308594,
        -0.15790976583957672,
        -0.92387956380844116
      ],
      "type": "VEC3"
    },
    {
      "bufferView": 1,
      "byteOffset": 8424,
      "componentType": 5126,
      "count": 96,
      "max": [
        1,
        1
      ],
      "min": [
        0,
        0.01000000536441803
      ],
      "type": "VEC2"
    },
    {
      "bufferView": 0,
      "byteOffset": 9312,
      "componentType": 5125,
      "count": 150,
      "max": [
        95
      ],
      "min": [
        0
      ],
      "type": "SCALAR"
    },
    {
      "bufferView": 2,
      "byteOffset": 27576,
      "componentType": 5126,
      "count": 32,
      "max": [
        2.2563614845275879,
        1,
        0.80334228277206421
      ],
      "min": [
        -5.748288631439209,
        -1.6697542667388916,
        -0.80438679456710815
      ],
      "type": "VEC3"
    },
    {
      "bufferView": 2,
      "byteOffset": 27960,
      "componentType": 5126,
      "count": 32,
      "max": [
        0.92387956380844116,
        0,
        0.96625685691833496
      ],
      "min": [
        -0.63195455074310303,
        -0.69696307182312012,
        -0.96638882160186768
      ],
      "type": "VEC3"
    },
    {
      "bufferView": 1,
      "byteOffset": 9192,
      "componentType": 5126,
      "count": 32,
      "max": [
        0.875,
        1
      ],
      "min": [
        0.17364417016506195,
        0.5
      ],
      "type": "VEC2"
    },
    {
      "bufferView": 0,
      "byteOffset": 9912,
      "componentType": 5125,
      "count": 48,
      "max": [
        31
      ],
      "min": [
        0
      ],
      "type": "SCALAR"
    },
    {
      "bufferView": 2,
      "byteOffset": 28344,
      "componentType": 5126,
      "count": 72,
      "max": [
        0.86557513475418091,
        -1.7766098976135254,
        0.86557507514953613
      ],
      "min": [
        -0.86557507514953613,
        -2.5609536170959473,
        -0.86557507514953613
      ],
      "type": "VEC3"
    },
    {
      "bufferView": 2,
      "byteOffset": 29208,
      "componentType": 5126,
      "count": 72,
      "max": [
        0.85297250747680664,
        -0.38419795036315918,
        0.85297256708145142
      ],
      "min": [
        -0.85297256708145142,
        -1,
        -0.85297250747680664
      ],
      "type": "VEC3"
    },
    {
      "bufferView": 1,
      "byteOffset": 9448,
      "componentType": 5126,
      "count": 72,
      "max": [
        1,
        0.5
      ],
      "min": [
        0,
        0.01000000536441803
      ],
      "type": "VEC2"
    },
    {
      "bufferView": 0,
      "byteOffset": 10104,
      "componentType": 5125,
      "count": 114,
      "max": [
        71
      ],
      "min": [
        0
      ],
      "type": "SCALAR"
    },
    {
      "bufferView": 2,
      "byteOffset": 30072,
      "componentType": 5126,
      "count": 136,
      "max": [
        5.7299304008483887,
        -1.0375618934631348,
        0.8201943039894104
      ],
      "min": [
        -5.748288631439209,
        -1.6697542667388916,
        -0.82541853189468384
      ],
      "type": "VEC3"
    },
    {
      "bufferView": 2,
      "byteOffset": 31704,
      "componentType": 5126,
      "count": 136,
      "max": [
        0.61858063936233521,
        0.99715918302536011,
        0.99974042177200317
      ],
      "min": [
        -0.21469402313232422,
        -0.9978298544883728,
        -0.99972397089004517
      ],
      "type": "VEC3"
    },
    {
      "bufferView": 1,
      "byteOffset": 10024,
      "componentType": 5126,
      "count": 136,
      "max": [
        0.82635575532913208,
        0.50000005960464478
      ],
      "min": [
        0.17364415526390076,
        0.49999994039535522
      ],
      "type": "VEC2"
    },
    {
      "bufferView": 0,
      "byteOffset": 10560,
      "componentType": 5125,
      "count": 204,
      "max": [
        135
      ],
      "min": [
        0
      ],
      "type": "SCALAR"
    }
  ],
  "asset": {
    "extras": {
      "author": "Ritvi.Mishra (https://sketchfab.com/Ritvi.Mishra)",
      "license": "CC-BY-4.0 (http://creativecommons.org/licenses/by/4.0/)",
      "source": "https://sketchfab.com/3d-models/airplane-f2de9c3d512344f2aed8a1d1e548c539",
      "title": "Airplane"
    },
    "generator": "Sketchfab-9.37.0",
    "version": "2.0"
  },
  "bufferViews": [
    {
      "buffer": 0,
      "byteLength": 11376,
      "byteOffset": 0,
      "name": "floatBufferViews",
      "target": 34963
    },
    {
      "buffer": 0,
      "byteLength": 11112,
      "byteOffset": 11376,
      "byteStride": 8,
      "name": "floatBufferViews",
      "target": 34962
    },
    {
      "buffer": 0,
      "byteLength": 33336,
      "byteOffset": 22488,
      "byteStride": 12,
      "name": "floatBufferViews",
      "target": 34962
    }
  ],
  "buffers": [
    {
      "byteLength": 55824,
      "uri": "scene.bin"
    }
  ],
  "materials": [
    {
      "doubleSided": true,
      "name": "material_0",
      "pbrMetallicRoughness": {
        "baseColorFactor": [
          1,
          1,
          1,
          1
        ],
        "metallicFactor": 0,
        "roughnessFactor": 0.59999999999999998
      }
    },
    {
      "doubleSided": true,
      "emissiveFactor": [
        0,
        0,
        0
      ],
      "name": "purple",
      "pbrMetallicRoughness": {
        "baseColorFactor": [
          0.11969100000000001,
          0.0295155,
          0.16794799999999999,
          1
        ],
        "metallicFactor": 0.77727299999999999,
        "roughnessFactor": 0.40000000000000002
      }
    },
    {
      "doubleSided": true,
      "emissiveFactor": [
        0,
        0,
        0
      ],
      "name": "material",
      "pbrMetallicRoughness": {
        "baseColorFactor": [
          0.68102200000000002,
          0.68595799999999996,
          0.036164500000000002,
          1
        ],
        "metallicFactor": 0.84999999999999998,
        "roughnessFactor": 0.28181800000000001
      }
    },
    {
      "doubleSided": true,
      "emissiveFactor": [
        0,
        0,
        0
      ],
      "name": "grey",
      "pbrMetallicRoughness": {
        "baseColorFactor": [
          0.106535,
          0.106535,
          0.106535,
          1
        ],
        "metallicFactor": 0,
        "roughnessFactor": 0.0045454500000000004
      }
    },
    {
      "doubleSided": true,
      "emissiveFactor": [
        0,
        0,
        0
      ],
      "name": "yellow",
      "pbrMetallicRoughness": {
        "baseColorFactor": [
          0.10266699999999999,
          0.54885300000000004,
          0.0095949599999999996,
          1
        ],
        "metallicFactor": 0.80000000000000004,
        "roughnessFactor": 0.204545
      }
    },
    {
      "doubleSided": true,
      "emissiveFactor": [
        0,
        0,
        0
      ],
      "name": "orange",
      "pbrMetallicRoughness": {
        "baseColorFactor": [
          0.80000000000000004,
          0.065884600000000001,
          0.0421179,
          1
        ],
        "metallicFactor": 0.87727299999999997,
        "roughnessFactor": 0.29090899999999997
      }
    }
  ],
  "meshes": [
    {
      "primitives": [
        {
          "attributes": {
            "NORMAL": 1,
            "POSITION": 0,
            "TEXCOORD_0": 2
          },
          "indices": 3,
          "material": 1,
          "mode": 4
        }
      ]
    },
    {
      "primitives": [
        {
          "attributes": {
            "NORMAL": 5,
            "POSITION": 4,
            "TEXCOORD_0": 6
          },
          "indices": 7,
          "material": 2,
          "mode": 4
        }
      ]
    },
    {
      "primitives": [
        {
          "attributes": {
            "NORMAL": 9,
            "POSITION": 8,
            "TEXCOORD_0": 10
          },
          "indices": 11,
          "material": 3,
          "mode": 4
        }
      ]
    },
    {
      "primitives": [
        {
          "attributes": {
            "NORMAL": 13,
            "POSITION": 12,
            "TEXCOORD_0": 14
          },
          "indices": 15,
          "material": 4,
          "mode": 4
        }
      ]
    },
    {
      "primitives": [
        {
          "attributes": {
            "NORMAL": 17,
            "POSITION": 16,
            "TEXCOORD_0": 18
          },
          "indices": 19,
          "material": 5,
          "mode": 4
        }
      ]
    },
    {
      "primitives": [
        {
          "attributes": {
            "NORMAL": 21,
            "POSITION": 20,
            "TEXCOORD_0": 22
          },
          "indices": 23,
          "material": 4,
          "mode": 4
        }
      ]
    },
    {
      "primitives": [
        {
          "attributes": {
            "NORMAL": 25,
            "POSITION": 24,
            "TEXCOORD_0": 26
          },
          "indices": 27,
          "material": 2,
          "mode": 4
        }
      ]
    },
    {
      "primitives": [
        {
          "attributes": {
            "NORMAL": 29,
            "POSITION": 28,
            "TEXCOORD_0": 30
          },
          "indices": 31,
          "material": 0,
          "mode": 4
        }
      ]
    }
  ],
  "nodes": [
    {
      "children": [
        1
      ],
      "name": "RootNode (gltf orientation matrix)",
      "rotation": [
        -0.70710678118654746,
        -0,
        -0,
        0.70710678118654757
      ]
    },
    {
      "children": [
        2
      ],
      "name": "RootNode (model correction matrix)"
    },
    {
      "children": [
        3
      ],
      "name": "root"
    },
    {
      "children": [
        4,
        9
      ],
      "matrix": [
        1,
        0,
        0,
        0,
        0,
        2.2204460492503131e-16,
        1,
        0,
        0,
        -1,
        2.2204460492503131e-16,
        0,
        0,
        0,
        0,
        1
      ],
      "name": "GLTF_SceneRootNode"
    },
    {
      "children": [
        5,
        6,
        7,
        8
      ],
      "matrix": [
        1,
        0,
        -0,
        0,
        -0,
        -0.0014054512983257418,
        -1.9903621479810591,
        0,
        0,
        1.00015019277732,
        -0.00070623448520937314,
        0,
        0,
        0,
        0,
        1
      ],
      "name": "Cylinder_0"
    },
    {
      "mesh": 0,
      "name": ""
    },
    {
      "mesh": 1,
      "name": ""
    },
    {
      "mesh": 2,
      "name": ""
    },
    {
      "mesh": 3,
      "name": ""
    },
    {
      "children": [
        10,
        11,
        12,
        13
      ],
      "matrix": [
        -0.23716101609361945,
        -0.0020860240786966314,
        -0.0023749475454038875,
        -0,
        -0.0023685229981746216,
        -0.00073961443129572264,
        0.23716910105694305,
        -0,
        0.0020933156849453098,
        -0.2371717391109939,
        -0.00071871746294149331,
        -0,
        0,
        -0.0012290477752685547,
        -1.740593433380127,
        1
      ],
      "name": "Cylinder.001_1"
    },
    {
      "mesh": 4,
      "name": ""
    },
    {
      "mesh": 5,
      "name": ""
    },
    {
      "mesh": 6,
      "name": ""
    },
    {
      "mesh": 7,
      "name": ""
    }
  ],
  "scene": 0,
  "scenes": [
    {
      "name": "OSG_Scene",
      "nodes": [
        0
      ]
    }
  ]
}

